<?xml version="1.0" encoding="utf-8"?>
<!-- Generator: Adobe Illustrator 24.3.0, SVG Export Plug-In . SVG Version: 6.00 Build 0)  -->
<svg version="1.1" id="Layer_1" xmlns="http://www.w3.org/2000/svg" xmlns:xlink="http://www.w3.org/1999/xlink" x="0px" y="0px"
	 viewBox="0 0 176 32" style="enable-background:new 0 0 176 32;" xml:space="preserve">
<style type="text/css">
	.st0{fill:#3C50E0;}
	.st1{fill:#FDFEFD;}
	.st2{fill:#93989C;}
	.st3{fill:#231F20;}
</style>
<path class="st0" d="M0,8.4C0,3.8,3.8,0,8.4,0h15.2C28.2,0,32,3.8,32,8.4v15.2c0,4.7-3.8,8.4-8.4,8.4H8.4C3.8,32,0,28.2,0,23.6V8.4z
	"/>
<g>
	<path class="st1" d="M8.6,19.8c-0.3-0.6-0.5-1.2-0.5-1.8c0-0.2,0.1-0.5,0.1-0.7c0.2-0.1,0.2,0.1,0.3,0.2c0.3,0.3,0.6,0.5,0.9,0.8
		c0.2,0.2,0.4,0.3,0.6,0.4c0.7,0.4,1.4,0.7,2.1,1c0.2,0.1,0.4,0.1,0.5,0.3c0.5,0.3,1.1,0.5,1.6,0.7c1.4,0.6,2.9,1,4.3,1.5
		c1.7,0.5,3.3,1.1,5,1.6c0-0.4,0-0.8,0-1.2c0-2.7,0-5.4,0-8.1c0-0.6,0.4-0.9,1-1c0.4,0,0.8,0,1.1,0.5c0.1,0.1,0.1,0.3,0.1,0.5
		c0,3.6,0,7.1,0,10.7c0,0.9-0.6,1.3-1.4,1.1c-1.6-0.5-3.2-1-4.8-1.5s-3.3-1-4.9-1.6c-1.4-0.5-2.8-1-4.2-1.7
		c-0.1-0.1-0.3-0.1-0.4-0.2C9.4,20.9,8.9,20.5,8.6,19.8z"/>
	<path class="st1" d="M20.9,12.8c0.3,0.4,0.4,0.9,0.4,1.4c0,0.4,0,0.8-0.1,1.3c-0.2,0.1-0.2-0.1-0.3-0.1c-0.3-0.3-0.6-0.5-1-0.8
		c-0.2-0.2-0.5-0.3-0.7-0.4c-0.7-0.4-1.4-0.7-2.1-1c-0.1-0.1-0.2-0.1-0.3-0.2c-2.4-1-4.9-1.9-7.4-2.7C9.3,10.1,9.1,9.9,9,10
		s-0.1,0.3-0.2,0.4c0,0.1,0,0.2-0.1,0.2s-0.1-0.2-0.1-0.3C8.4,9.8,8.3,9.2,8.1,8.6c0-0.1-0.1-0.1,0-0.2C8.7,8,9.3,7.6,9.9,7.2H10
		c0,0.2-0.1,0.3-0.1,0.4C9.7,8,9.8,8,10.1,8.1c2.5,0.8,5,1.7,7.4,2.6c0.7,0.2,1.3,0.6,1.9,0.9c0.6,0.2,1,0.5,1.4,0.9
		C20.8,12.6,20.9,12.7,20.9,12.8z"/>
	<path class="st2" d="M16.8,12.8c0.8,0.4,1.7,0.7,2.5,1.2c0,0.3-0.3,0.3-0.5,0.4c-1.1,0.5-2.2,0.9-3.3,1.3c-1.4,0.5-2.8,1-4.1,1.6
		c-0.5,0.2-1,0.5-1.5,0.8c-0.1,0.1-0.3,0.2-0.4,0.1c-0.4-0.2-0.7-0.5-1-0.7c-0.1-0.1-0.2-0.2-0.3-0.3c0.4-1.1,1.3-1.6,2.3-2
		C12.6,14.3,14.8,13.7,16.8,12.8z"/>
	<path class="st2" d="M20,14.4c0.4,0.2,0.7,0.5,1,0.7c0.1,0.1,0.2,0.2,0.3,0.3c-0.2,0.6-0.6,1-1.1,1.3c-1,0.7-2.1,1.1-3.2,1.5
		c-1.4,0.6-2.8,1.1-4.2,1.6l0,0c-0.4-0.1-0.8-0.3-1.2-0.5c-0.5-0.2-1-0.4-1.4-0.7c0-0.2,0.2-0.2,0.4-0.3c1.2-0.5,2.5-0.9,3.7-1.4
		c1.8-0.7,3.5-1.3,5.2-2.3C19.5,14.6,19.7,14.4,20,14.4z"/>
	<path class="st1" d="M20.1,11.1c-1-0.8-2.2-1.3-3.4-1.8c-1.1-0.4-2.3-0.8-3.5-1.3c-0.4-0.2-0.6-0.4-0.6-0.8c0-0.5,0-0.9,0.6-1.1
		c0.3-0.1,0.6-0.1,0.9,0c1.4,0.4,2.8,0.9,4.1,1.5c0.7,0.3,1.4,0.6,2,1c0.8,0.5,1.2,1.2,1.1,2.1c0,0.5,0,0.9,0,1.4
		c-0.2,0-0.3-0.2-0.4-0.3C20.6,11.6,20.3,11.4,20.1,11.1z"/>
	<path class="st1" d="M9.4,21.6c1.3,1.1,2.9,1.6,4.5,2.2c0.8,0.3,1.7,0.6,2.5,0.9c0.4,0.1,0.6,0.7,0.6,1.1c-0.2,0.7-0.5,0.9-1,0.9
		c-0.7,0-1.2-0.3-1.8-0.5C13,25.8,12,25.4,11,24.9c-0.6-0.3-1.1-0.5-1.6-0.9c-0.7-0.5-1.1-1.1-1.1-2c0-0.5,0-1,0-1.4
		c0.1-0.1,0.1,0,0.2,0c0.3,0.3,0.5,0.5,0.8,0.8C9.3,21.4,9.4,21.5,9.4,21.6z"/>
	<path class="st1" d="M23.6,11.5c-0.1-0.7,0.6-1.2,1.1-1.2c0.7,0,1.2,0.5,1.2,1.2s-0.5,1.2-1.2,1.2C24.1,12.7,23.5,12.2,23.6,11.5z"
		/>
	<path class="st2" d="M20.1,11.1c0.4,0.3,0.8,0.7,1.2,1c-0.1,0.2-0.2,0.5-0.4,0.7c-0.4-0.5-1-0.9-1.5-1.2
		C19.7,11.5,19.9,11.3,20.1,11.1z"/>
	<path class="st2" d="M9.4,21.6c-0.4-0.3-0.7-0.7-1.1-1c0.1-0.3,0.2-0.5,0.3-0.8c0.4,0.5,0.9,1,1.5,1.3C9.8,21.2,9.6,21.4,9.4,21.6z
		"/>
</g>
<g>
	<path class="st3" d="M43.3,22.3h8.2v3.1H39.1v-2.8l8.1-12.3h-8.1v-3h12.4v2.8L43.3,22.3z"/>
	<path class="st3" d="M54.5,14.3c0.6-1.1,1.4-2,2.4-2.6c1-0.6,2.1-0.9,3.3-0.9c1.1,0,2,0.2,2.8,0.7c0.8,0.4,1.5,1,1.9,1.6V11h3.7
		v14.4H65v-2.1c-0.5,0.7-1.2,1.2-2,1.7c-0.8,0.4-1.8,0.7-2.8,0.7c-1.2,0-2.3-0.3-3.3-0.9s-1.8-1.5-2.4-2.6c-0.6-1.1-0.9-2.4-0.9-3.9
		C53.6,16.7,53.9,15.4,54.5,14.3z M64.4,15.9c-0.3-0.6-0.8-1.1-1.4-1.5c-0.6-0.3-1.2-0.5-1.9-0.5s-1.3,0.2-1.9,0.5
		c-0.6,0.3-1,0.8-1.4,1.4c-0.4,0.6-0.5,1.4-0.5,2.2c0,0.9,0.2,1.6,0.5,2.3c0.4,0.6,0.8,1.1,1.4,1.5c0.6,0.3,1.2,0.5,1.9,0.5
		s1.3-0.2,1.9-0.5c0.6-0.3,1.1-0.8,1.4-1.5s0.5-1.4,0.5-2.3S64.8,16.6,64.4,15.9z"/>
	<path class="st3" d="M72.1,14.3c0.6-1.1,1.4-2,2.4-2.6c1-0.6,2.1-0.9,3.3-0.9c1.1,0,2,0.2,2.8,0.7c0.8,0.4,1.5,1,1.9,1.6V11h3.7
		v14.4h-3.7v-2.1C82,24,81.4,24.5,80.6,25c-0.8,0.4-1.8,0.7-2.8,0.7c-1.2,0-2.3-0.3-3.3-0.9s-1.8-1.5-2.4-2.6s-0.9-2.4-0.9-3.9
		C71.2,16.7,71.5,15.4,72.1,14.3z M82.1,15.9c-0.3-0.6-0.8-1.1-1.4-1.5c-0.6-0.3-1.2-0.5-1.9-0.5c-0.7,0-1.3,0.2-1.9,0.5
		s-1,0.8-1.4,1.4C75.1,16.4,75,17.2,75,18c0,0.9,0.2,1.6,0.5,2.3c0.4,0.6,0.8,1.1,1.4,1.5c0.6,0.3,1.2,0.5,1.9,0.5
		c0.7,0,1.3-0.2,1.9-0.5s1.1-0.8,1.4-1.5s0.5-1.4,0.5-2.3S82.4,16.6,82.1,15.9z"/>
	<path class="st3" d="M89.7,14.3c0.6-1.1,1.4-2,2.4-2.6c1-0.6,2.1-0.9,3.4-0.9c0.9,0,1.8,0.2,2.7,0.6c0.8,0.4,1.5,0.9,2,1.6V6.2h3.7
		v19.2h-3.7v-2.1c-0.5,0.7-1.1,1.3-1.9,1.7c-0.8,0.4-1.8,0.7-2.8,0.7c-1.2,0-2.3-0.3-3.3-0.9s-1.8-1.5-2.4-2.6s-0.9-2.4-0.9-3.9
		C88.9,16.7,89.2,15.4,89.7,14.3z M99.7,15.9c-0.3-0.6-0.8-1.1-1.4-1.5c-0.6-0.3-1.2-0.5-1.9-0.5s-1.3,0.2-1.9,0.5s-1,0.8-1.4,1.4
		c-0.4,0.6-0.5,1.4-0.5,2.2c0,0.9,0.2,1.6,0.5,2.3c0.4,0.6,0.8,1.1,1.4,1.5c0.6,0.3,1.2,0.5,1.9,0.5c0.7,0,1.3-0.2,1.9-0.5
		s1.1-0.8,1.4-1.5s0.5-1.4,0.5-2.3S100,16.6,99.7,15.9z"/>
</g>
</svg>
